<?xml version="1.0" encoding="utf-8"?><!-- Uploaded to: SVG Repo, www.svgrepo.com, Generator: SVG Repo Mixer Tools -->
<svg fill="#000000" width="800px" height="800px" viewBox="0 0 24 24" id="disney-plus" data-name="Flat Color" xmlns="http://www.w3.org/2000/svg" class="icon flat-color"><path id="secondary" d="M19,8a1,1,0,0,1-1-1V6H17a1,1,0,0,1,0-2h1V3a1,1,0,0,1,2,0V4h1a1,1,0,0,1,0,2H20V7A1,1,0,0,1,19,8Z" style="fill: rgb(44, 169, 188);"></path><path id="primary" d="M17.89,12.58C16.47,4.87,7.42,4.26,2.84,5a1,1,0,1,0,.32,2c.12,0,11.34-1.78,12.76,6a3.39,3.39,0,0,1-1,3.38C13.59,17.58,11.1,18,9.19,17.92l-1-6.19a5.66,5.66,0,0,1,3.21,1.07,1,1,0,1,0,1.19-1.6A7.59,7.59,0,0,0,7.82,9.74l-.15-.9a1,1,0,1,0-2,.32l.14.84a7.67,7.67,0,0,0-1.33.48A4.07,4.07,0,0,0,2,14.06c0,2.54,2,4.68,5.16,5.57l.29.06.25,1.47a1,1,0,0,0,1,.84h.17a1,1,0,0,0,.82-1.15l-.15-.92h.19a10.1,10.1,0,0,0,6.59-2.12A5.4,5.4,0,0,0,17.89,12.58ZM4,14.06c0-.94.88-1.52,1.41-1.79A5.22,5.22,0,0,1,6.17,12l.92,5.52C5.15,16.79,4,15.54,4,14.06Z" style="fill: rgb(0, 0, 0);"></path></svg>